
        <svg xmlns="http://www.w3.org/2000/svg" xmlns:xlink="http://www.w3.org/1999/xlink" version="1.1" width="3133.3333333333335" height="1233.3333333333333" viewBox="0 0 3133.3333333333335 1233.3333333333333">
			
			<g transform="scale(6.666666666666667) translate(10, 10)">
				<defs id="SvgjsDefs3163"/><g id="SvgjsG3164" featureKey="rootContainer" transform="matrix(1,0,0,1,0,0)" fill="#fff"><path xmlns="http://www.w3.org/2000/svg" fill-rule="evenodd" d=" M0,0 H450 V165 H0,0 z M2,2 H448 V163 H2,2 z M6,6 H444 V159 H6 z M8,8 H442 V157 H6,8 z "/></g><g id="SvgjsG3165" featureKey="nameFeature-0" transform="matrix(2.267761699547873,0,0,2.267761699547873,46.280868141799466,23.69395909475006)" fill="#fff"><path d="M19.52 24.72 c4.6 0.64 7.44 3.44 7.44 7.28 c0 4.72 -4.16 8 -13.4 8 l-10.96 0 c-0.56 0 -0.96 -0.28 -0.96 -0.76 l0 -0.16 c0 -1.12 1.6 -1.6 1.6 -3.44 l0 -19.68 c0 -1.84 -1.6 -2.32 -1.6 -3.44 l0 -0.16 c0 -0.48 0.4 -0.76 0.96 -0.76 l11.08 0 c7.2 0 10.48 3.2 10.48 7.2 c0 3 -1.84 5.2 -4.64 5.92 z M10.44 16.48 l0 5.04 c0 1.32 0.88 2.08 2.16 2.08 l2 0 c2.04 0 3.36 -1.48 3.36 -3.76 c0 -3.44 -1.8 -5.44 -4.52 -5.44 l-1.12 0 c-1.04 0 -1.88 0.48 -1.88 2.08 z M15.36 37.2 c2.56 0 4 -1.68 4 -4.16 c0 -2.96 -2.44 -6.64 -7.24 -6.64 l-1.68 0 l0 7.4 c0 1.92 1.16 3.4 3 3.4 l1.92 0 z M43.676 33.68 c0.56 -0.56 1.52 -0.32 1.48 0.56 c-0.12 2.2 -2.4 6.16 -8.16 6.16 c-5.92 0 -10.12 -4.08 -10.12 -10.12 c0 -5.96 4.56 -9.84 9.92 -9.88 c4.76 -0.04 7.96 2.28 7.96 5.8 c0 2.8 -2.64 5.12 -6.4 5.72 c-1.4 0.24 -2.8 0.32 -4 0.28 c1.04 2 2.8 3.24 5.04 3.24 c2 0 3.56 -0.8 4.28 -1.76 z M35.956 22.52 c-1.64 0 -2.72 1.84 -2.72 4.48 c0 1.08 0.12 2.12 0.36 3.08 c0.76 0.04 1.48 0 2 -0.08 c1.76 -0.32 2.72 -1.56 2.72 -4.32 c-0.04 -1.76 -1.04 -3.16 -2.36 -3.16 z M52.788 40 c-0.56 0 -0.96 -0.28 -0.96 -0.76 l0 -0.16 c0 -1.12 1.6 -1.6 1.6 -3.44 l0 -19.68 c0 -1.84 -1.6 -2.32 -1.6 -3.44 l0 -0.16 c0 -0.48 0.4 -0.76 0.96 -0.76 l8.72 0 c0.6 0 0.96 0.28 0.96 0.76 l0 0.16 c0 1.12 -1.72 1.6 -1.72 3.44 l-0.04 8.16 l10.52 0 l0.04 -8.16 c0 -1.84 -1.56 -2.32 -1.56 -3.44 l0 -0.16 c0 -0.48 0.32 -0.76 0.92 -0.76 l8.72 0 c0.56 0 0.96 0.28 0.96 0.76 l0 0.16 c0 1.12 -1.8 1.6 -1.8 3.44 l0 19.68 c0 1.84 1.8 2.32 1.8 3.44 l0 0.16 c0 0.48 -0.4 0.76 -0.96 0.76 l-8.72 0 c-0.6 0 -0.92 -0.28 -0.92 -0.76 l0 -0.16 c0 -1.12 1.56 -1.6 1.56 -3.44 l-0.04 -8.4 l-10.48 0 l-0.04 8.4 c0 1.84 1.76 2.32 1.76 3.44 l0 0.16 c0 0.48 -0.36 0.76 -0.96 0.76 l-8.72 0 z M92.064 40.4 c-6.12 0 -11.08 -4.24 -11.08 -10.04 c0 -5.92 5.08 -9.96 10.8 -9.96 c6 0 10.96 4.16 10.96 10.04 c0 5.84 -4.84 9.96 -10.68 9.96 z M92.904 38.44 c1.88 0 2.56 -1.92 2.56 -4.92 c0 -3.12 -1.64 -11.16 -4.8 -11.16 c-1.92 0 -2.6 1.76 -2.6 5 s1.6 11.08 4.84 11.08 z M136.7 35.64 c0.12 1.84 1.44 2.36 1.44 3.48 l0 0.16 c0 0.48 -0.4 0.76 -0.96 0.76 l-8 0 c-0.56 0 -0.96 -0.28 -0.96 -0.76 l0 -0.16 c0 -1.12 1.56 -1.64 1.44 -3.48 l-0.4 -7.08 c-0.2 -4.04 -1.04 -5.52 -2.76 -5.52 c-1.64 0 -2.48 1.6 -2.48 3.8 c0.08 0.56 0.12 1.08 0.12 1.68 l0 7.12 c0 1.84 1.44 2.36 1.44 3.48 l0 0.16 c0 0.48 -0.4 0.76 -0.96 0.76 l-7.96 0 c-0.6 0 -0.96 -0.28 -0.96 -0.76 l0 -0.16 c0 -1.12 1.4 -1.64 1.4 -3.48 l0 -7.6 c0 -3.4 -1.04 -5 -2.72 -5 c-1.84 0 -2.68 1.64 -2.68 3.8 l0 8.8 c0 1.84 1.76 2.36 1.76 3.48 l0 0.16 c0 0.48 -0.36 0.76 -0.96 0.76 l-8.64 0 c-0.6 0 -0.96 -0.28 -0.96 -0.76 l0 -0.16 c0 -1.12 1.76 -1.64 1.76 -3.48 l0 -7.88 c0 -1.88 -2.12 -2.16 -2.12 -3.32 l0 -0.12 c0 -0.48 0.4 -0.72 0.96 -1 l6 -2.76 c1 -0.48 1.52 0.16 1.52 0.96 l0 1.44 c1.16 -1.6 3.04 -2.56 5.32 -2.56 c2.76 0 5.16 1.12 6.56 3.28 c1.08 -2.08 3.28 -3.28 5.92 -3.28 c3.44 0 6.88 1.92 7.36 8.4 z M154.496 33.68 c0.56 -0.56 1.52 -0.32 1.48 0.56 c-0.12 2.2 -2.4 6.16 -8.16 6.16 c-5.92 0 -10.12 -4.08 -10.12 -10.12 c0 -5.96 4.56 -9.84 9.92 -9.88 c4.76 -0.04 7.96 2.28 7.96 5.8 c0 2.8 -2.64 5.12 -6.4 5.72 c-1.4 0.24 -2.8 0.32 -4 0.28 c1.04 2 2.8 3.24 5.04 3.24 c2 0 3.56 -0.8 4.28 -1.76 z M146.776 22.52 c-1.64 0 -2.72 1.84 -2.72 4.48 c0 1.08 0.12 2.12 0.36 3.08 c0.76 0.04 1.48 0 2 -0.08 c1.76 -0.32 2.72 -1.56 2.72 -4.32 c-0.04 -1.76 -1.04 -3.16 -2.36 -3.16 z"/></g>
			</g>
		</svg>
	